<svg id="7904f1c6-104a-4ac0-989b-e4ffb790501c" data-name="Layer 1" xmlns="http://www.w3.org/2000/svg" viewBox="0 0 887.3 300"><title>mandarina-logo-neg</title><g id="ea1334d1-0790-40f2-a2f7-6cf5c9e1bc7c" data-name="Logo"><path d="M1.6,11.7H30.3L63.2,83,89.5,11.7h26.7v1.7c-3.8,2.1-6.2,6.2-6.2,15.9V89.5c0,9.3,2.8,13.8,6.2,15.9v1.7H83.6v-1.7c3.8-2.1,5.9-6.2,5.9-15.9v-63L57.3,108.9H52.8l-38.1-81,1.4,53.7c.3,13.8,4.8,21.5,10.4,23.9v1.7H.2v-1.7c5.2-2.4,9.7-10.4,10-23.9l.7-44.7c.3-14.2-3.1-19.4-9.3-23.5V11.7Z" style="fill:#fff"/><path d="M182.6,90.2V60.5c0-15.9-4.8-27-29.4-27-14.5,0-26.3,6.2-26.3,16.6a9.52,9.52,0,0,0,9.7,9.7c5.5,0,9.3-4.5,9.3-9.7a10.19,10.19,0,0,0-4.2-8c2.1-3.1,6.2-4.8,10.7-4.8,10,0,11.1,7.3,11.1,20.8v9a70.52,70.52,0,0,0-8.3-.3c-17.3,0-31.5,7.6-31.5,22.8,0,11.1,8,18.7,19.7,18.7a26.61,26.61,0,0,0,19.7-8.3v7.3h25.6v-1.7C186.1,103.7,183,99.2,182.6,90.2Zm-28.7,9.4c-6.6,0-10.4-4.8-10.4-11.8,0-9.3,5.9-15.9,18-15.9h2.1V95.1C161.2,97.5,158,99.6,153.9,99.6Z" style="fill:#fff"/><path d="M204.1,240.1V210.3c0-15.9-4.8-27-29.4-27-14.5,0-26.3,6.2-26.3,16.6a9.52,9.52,0,0,0,9.7,9.7c5.5,0,9.3-4.5,9.3-9.7a10.19,10.19,0,0,0-4.2-8c2.1-3.1,6.2-4.8,10.7-4.8,10,0,11.1,7.3,11.1,20.8v9a70.52,70.52,0,0,0-8.3-.3c-17.3,0-31.5,7.6-31.5,22.8,0,11.1,8,18.7,19.7,18.7a26.61,26.61,0,0,0,19.7-8.3v7.3h25.6v-1.7C207.2,253.7,204.1,249.1,204.1,240.1ZM175,249.5c-6.6,0-10.4-4.8-10.4-11.8,0-9.3,5.9-15.9,18-15.9h2.1v22.8C182.3,247.4,179.2,249.5,175,249.5Z" style="fill:#fff"/><path d="M230.7,105.5v1.7H198.8v-1.7c3.8-2.1,6.6-6.2,6.6-15.9V53.9c0-8.3-5.2-11.1-6.2-11.4V40.8l25.3-8V48.4c8-9.7,18.3-14.2,27.3-14.2,14.5,0,19,9,19,23.9V90.3c0,9.7,3.1,13.8,6.6,15.9v1.7H245.5v-1.7c3.5-2.1,5.9-6.2,5.9-15.9V60.5c0-9.3-4.8-13.2-12.1-13.2-5.2,0-10.7,2.4-14.9,4.8V90.2C224.9,99.2,227.3,103.4,230.7,105.5Z" style="fill:#fff"/><path d="M502.9,44.5c0,6.6-4.5,11.4-11.1,11.4-5.5,0-10-4.8-10.4-10.4-3.5.3-9,4.5-12.1,8v36c0,9.3,3.1,13.5,9,15.9v1.7H443.7v-1.7c3.8-2.1,6.6-6.2,6.6-15.9V53.9c0-8.3-5.2-11.1-6.2-11.4V40.8l25.3-8V49.4c5.5-8,13.5-15.9,21.8-15.9C498.7,33.8,502.9,39.4,502.9,44.5Z" style="fill:#fff"/><path d="M542.7,105.5v1.7H510.5v-1.7c3.8-2.1,6.6-6.2,6.6-15.9V54.9c0-8.3-5.2-11.1-6.2-11.4V41.8l25.3-8V89.5C536.4,99.2,539.5,103.7,542.7,105.5Zm-4.5-92.1a11.8,11.8,0,1,1-23.6,0A12.16,12.16,0,0,1,526.4,1.6C532.3,1.3,538.2,6.8,538.2,13.4Z" style="fill:#fff"/><path d="M357.1,89.6V87.5h0V.2l-26,7.3V9.2c1.4.7,6.6,3.8,6.6,11.8V38.3c-4.2-3.1-10-4.5-16.6-4.5-21.8,0-35.3,15.9-35.3,39.8,0,19.7,10.4,35,28.7,35,11.1,0,19.4-8.3,23.2-13.8V107h25.6v-1.7C360.6,103.7,357.1,99.2,357.1,89.6Zm-32.2,6.5c-12.5,0-18.7-11.4-18.7-28,0-22.2,8.7-29.8,17.3-29.8,6.9,0,13.2,4.8,14.2,15.6V91.7A22.9,22.9,0,0,1,324.9,96.1Z" style="fill:#fff"/><path d="M584.6,105.5v1.7H552.7v-1.7c3.8-2.1,6.6-6.2,6.6-15.9V53.9c0-8.3-5.2-11.1-6.2-11.4V40.8l25.3-8V48.4c8-9.7,18.3-14.2,27.3-14.2,14.5,0,19,9,19,23.9V90.3c0,9.7,3.1,13.8,6.6,15.9v1.7H599.4v-1.7c3.5-2.1,5.9-6.2,5.9-15.9V60.5c0-9.3-4.8-13.2-12.1-13.2-5.2,0-10.7,2.4-14.9,4.8V90.2C578.3,99.2,580.7,103.4,584.6,105.5Z" style="fill:#fff"/><path d="M430.8,90.2V60.5c0-15.9-4.8-27-29.4-27-14.5,0-26.3,6.2-26.3,16.6a9.52,9.52,0,0,0,9.7,9.7c5.5,0,9.3-4.5,9.3-9.7a10.19,10.19,0,0,0-4.2-8c2.1-3.1,6.2-4.8,10.7-4.8,10,0,11.1,7.3,11.1,20.8v9a70.52,70.52,0,0,0-8.3-.3c-17.3,0-31.5,7.6-31.5,22.8,0,11.1,8,18.7,19.7,18.7a26.61,26.61,0,0,0,19.7-8.3v7.3h25.6v-1.7C434.3,103.7,431.2,99.2,430.8,90.2Zm-29,9.4c-6.6,0-10.4-4.8-10.4-11.8,0-9.3,5.9-15.9,18-15.9h2.1V95.1C409,97.5,405.9,99.6,401.8,99.6Z" style="fill:#fff"/><path d="M698.1,90.2V60.5c0-15.9-4.8-27-29.4-27-14.5,0-26.3,6.2-26.3,16.6a9.52,9.52,0,0,0,9.7,9.7c5.5,0,9.3-4.5,9.3-9.7a10.19,10.19,0,0,0-4.2-8c2.1-3.1,6.2-4.8,10.7-4.8,10,0,11.1,7.3,11.1,20.8v9a70.52,70.52,0,0,0-8.3-.3c-17.3,0-31.5,7.6-31.5,22.8,0,11.1,8,18.7,19.7,18.7a26.61,26.61,0,0,0,19.7-8.3v7.3h25.6v-1.7C701.2,103.7,698.1,99.2,698.1,90.2ZM669,99.6c-6.6,0-10.4-4.8-10.4-11.8,0-9.3,5.9-15.9,18-15.9h2.1V95.1C676.3,97.5,673.2,99.6,669,99.6Z" style="fill:#fff"/><path d="M375.1,239.1V237h0V149.8l-26,7.3v1.7c1.4.7,6.6,3.8,6.6,11.8v17.3c-4.2-3.1-10-4.5-16.6-4.5-21.8,0-35.3,15.9-35.3,39.8,0,19.7,10.4,35,28.7,35,11.1,0,19.4-8.3,23.2-13.8v12.2h25.6v-1.7C378.6,253.3,375.1,248.8,375.1,239.1Zm-32.2,6.6c-12.5,0-18.7-11.4-18.7-28,0-22.2,8.7-29.8,17.3-29.8,6.9,0,13.2,4.8,14.2,15.6v37.8A21.52,21.52,0,0,1,342.9,245.7Z" style="fill:#fff"/><path d="M474.1,240.5c0-22.8-46.4-21.5-46.4-53.7,0-15.9,13.8-27,31.9-27,11.4,0,20.4,2.8,27,6.9v22.5h-1.7c-6.6-19-17.3-24.9-26-24.9s-13.8,5.5-13.8,12.8c0,22.2,46.7,22.5,46.7,53,0,16.6-12.1,28.4-33.2,28.4a58.87,58.87,0,0,1-29.1-7.3V227.7h1.7c7.3,17,17.3,26.3,28,26.3C468.9,254,474.1,248.1,474.1,240.5Z" style="fill:#fff"/><path d="M499,222.1c0-21.8,13.8-38.8,38.8-38.8,23.2,0,36.7,16.6,36.7,37.7,0,22.2-15.9,37.4-38.8,37.4C513.6,258.5,499,243.3,499,222.1Zm55.1,1.4c0-21.5-6.2-35.7-17.7-35.7s-16.6,14.9-16.6,29.4c0,17.3,4.8,36.7,17.7,36.7C547.9,254,554.1,242.9,554.1,223.5Z" style="fill:#fff"/><path d="M581.8,221.8c0-23.5,17-38.4,37.4-38.4,18.3,0,27.7,9,27.7,18.3a10.87,10.87,0,0,1-10.7,11.1,10.2,10.2,0,0,1-10.4-10.4,10,10,0,0,1,4.8-8.7c-1.7-3.1-4.8-5.5-10.4-5.5-13.8,0-18.7,15.2-18.7,27.3,0,21.5,12.5,32.2,25.3,32.2,6.9,0,14.9-3.5,19.7-7.6l1.4,1.4c-6.2,9.3-16.3,17.3-30.8,17.3C597.4,258.5,581.8,244,581.8,221.8Z" style="fill:#fff"/><path d="M687.4,255v1.7H655.2V255c3.8-2.1,6.6-6.2,6.6-15.9V204.5c0-8.3-5.2-11.1-6.2-11.4v-1.7l25.3-8v55.7C680.8,248.8,683.9,253.3,687.4,255Zm-4.9-92.1a11.8,11.8,0,1,1-23.6,0,12.16,12.16,0,0,1,11.8-11.8C677,150.8,682.5,156.4,682.5,162.9Z" style="fill:#fff"/><path d="M759.4,241.2c-7.3,10.4-19,17.3-32.2,17.3-19.7,0-34.6-14.2-34.6-36.7,0-23.2,15.6-38.4,35.7-38.4,22.5,0,30.5,13.5,30.5,31.5v3.8H712.4c1,20.4,12.5,29.1,24.9,29.1a34.49,34.49,0,0,0,21.1-8Zm-47.1-26.3h0l29.1-2.4c0-14.2-3.8-24.6-13.2-24.6C716.1,187.5,712.3,202.8,712.3,214.9Z" style="fill:#fff"/><path d="M860.1,184.8v1.7c6.2,4.2,6.6,13.8,3.8,22.8-.3,1.4-10.7,27-10.7,27l-10-24.2c-4.5-9.7-8.3-20.4-1-25.6v-1.7H793V162.6h-4.2a45.06,45.06,0,0,1-24.6,24.2v3.8h9.7v45.7c0,14.5,5.5,21.8,17.7,21.8,8.3,0,16.6-4.5,21.8-10.7l-1-1.7a24.65,24.65,0,0,1-9.3,2.4c-7.3,0-9.3-5.2-9.3-14.2V191h18c4.2,4.5,8,11.1,11.1,18.3l22.5,49.9-8.7,22.2a11.71,11.71,0,0,0-9.7-4.8,11.8,11.8,0,0,0,0,23.6,12.22,12.22,0,0,0,11.4-8.7h0L851.2,259l19.4-48.8.7-1.7c4.2-10.7,9.3-18,15.9-21.5v-1.7h-27v-.5Z" style="fill:#fff"/><path d="M76.3,230.8c0,16.3-11.1,26.3-38.4,26.3H.5v-1.7c3.8-2.1,5.9-6.2,5.9-15.9V178.2c0-8.7-2.4-12.8-5.9-14.9v-1.7H39.6c20.1,0,32.5,8.7,32.5,23.9,0,14.2-11.8,21.5-24.6,22.8C62.1,209,76.3,215.9,76.3,230.8ZM26.5,166.1v40.5l5.5-.7c11.1-.7,17.7-6.9,17.7-19.7,0-15.9-7.3-20.4-18.3-20.4H26.6v.3Zm27.3,65c0-13.2-7.3-20.4-21.5-21.1l-5.9-.3v31.9c0,8,3.8,11.4,10,11.4h1C47.9,253,53.8,247.1,53.8,231.1Z" style="fill:#fff"/><path d="M144.2,194.4c0,6.6-4.5,11.4-11.1,11.4-5.5,0-10-4.8-10.4-10.4-3.5.3-9,4.5-12.1,8v36.4c0,9.3,3.1,13.5,9,15.9v1.7H85v-1.7c3.8-2.1,6.6-6.2,6.6-15.9V204.1c0-8.3-5.2-11.1-6.2-11.4V191l25.3-8v16.6c5.5-8,13.5-15.9,21.8-15.9C140,183.4,144.2,188.9,144.2,194.4Z" style="fill:#fff"/><path d="M248.7,255.4v1.7H216.8v-1.7c3.8-2.1,6.6-6.2,6.6-15.9V203.8c0-8.3-5.2-11.1-6.2-11.4v-1.7l25.3-8v15.6c8-9.7,18.3-14.2,27.3-14.2,14.5,0,19,9,19,23.9v32.2c0,9.7,3.1,13.8,6.6,15.9v1.7H263.5v-1.7c3.5-2.1,5.9-6.2,5.9-15.9V210.4c0-9.3-4.8-13.2-12.1-13.2-5.2,0-10.7,2.4-14.9,4.8v38.1C242.5,249.1,245.3,253.3,248.7,255.4Z" style="fill:#fff"/></g></svg>